PathFileType	4	(X/Y/Z)	./resultDataOpenSim/trcMotMarkerGrf/sub10/qtm-05-06.trc
DataRate	CameraRate	NumFrames	NumMarkers	Units	OrigDataRate	OrigDataStartFrame	OrigNumFrames
250.000000	250.000000	9	24	m	250.000000	63	502
Frame#	Time	L.Toe.Tip			R.Toe.Tip			L.Ankle.Lat			R.Ankle.Lat			L.Ankle.Med			R.Ankle.Med			L.Heel			R.Heel			L.Knee.Lat			R.Knee.Lat			L.Knee.Med			R.Knee.Med			L.Thigh.Upper			R.Thigh.Upper			L.ASIS			R.ASIS			V.Sacral			L.Acromium			R.Acromium			C7			L.Elbow			R.Elbow			L.Wrist.Lat			R.Wrist.Lat
		X1	Y1	Z1	X2	Y2	Z2	X3	Y3	Z3	X4	Y4	Z4	X5	Y5	Z5	X6	Y6	Z6	X7	Y7	Z7	X8	Y8	Z8	X9	Y9	Z9	X10	Y10	Z10	X11	Y11	Z11	X12	Y12	Z12	X13	Y13	Z13	X14	Y14	Z14	X15	Y15	Z15	X16	Y16	Z16	X17	Y17	Z17	X18	Y18	Z18	X19	Y19	Z19	X20	Y20	Z20	X21	Y21	Z21	X22	Y22	Z22	X23	Y23	Z23	X24	Y24	Z24

63	0.248	-1.3756261	0.063147123	-0.19339057	-0.712805	0.038824636	-0.051307772	-1.3683786	0.19642128	-0.24381666	-0.85923508	0.05090017	-0.022016942	-1.3484443	0.19610362	-0.16360391	-0.83455045	0.080788886	-0.10446097	-1.4060139	0.24992666	-0.19987024	-0.90463937	0.02910737	-0.073442935	-1.0551387	0.40548718	-0.26595471	-0.82373415	0.44715701	0.026668887	-1.0318395	0.36020815	-0.15385027	-0.82672066	0.460301	-0.10164778	-1.0142497	0.78009758	-0.27293859	-0.93758618	0.84877202	0.10355377	-0.94317481	0.89237735	-0.22249447	-0.89510451	0.93330964	0.01125406	-1.1168883	0.92044389	-0.064466082	-0.97326551	1.3800706	-0.2531292	-0.99672462	1.3751596	0.069348932	-1.0648091	1.4095811	-0.098609538	-1.0516436	1.0370506	-0.32292934	-1.1479826	1.0660043	0.10451822	-0.8283355	0.92000197	-0.2994775	-1.0992137	0.84118816	0.18245607
64	0.252	-1.3663335	0.065816389	-0.19493286	-0.71278893	0.038781751	-0.051358434	-1.3583198	0.19922751	-0.24420389	-0.85932323	0.050901239	-0.02202379	-1.3364643	0.19861811	-0.16448875	-0.83443087	0.080764911	-0.10450944	-1.3956019	0.25286315	-0.19996554	-0.90468956	0.029086627	-0.073432238	-1.044089	0.40561513	-0.26610298	-0.82150959	0.44719103	0.02707462	-1.0207776	0.36117646	-0.15368618	-0.82457777	0.46022822	-0.10153866	-1.0079364	0.78054687	-0.27244463	-0.93239958	0.84909315	0.10420907	-0.93779691	0.8930103	-0.22216905	-0.88963222	0.93346835	0.011871039	-1.1119139	0.92087153	-0.063966705	-0.96807505	1.3807417	-0.25284596	-0.99131614	1.375858	0.069740105	-1.0596384	1.4103973	-0.098154074	-1.0466459	1.0377592	-0.32258596	-1.1416146	1.0662359	0.10553782	-0.82390121	0.91984839	-0.29918594	-1.0921402	0.84145318	0.18303209
65	0.256	-1.3561612	0.068389956	-0.19652628	-0.71276821	0.038739691	-0.051411519	-1.3482139	0.20197647	-0.24451405	-0.85942458	0.050898469	-0.022032301	-1.3238897	0.20113772	-0.1654471	-0.83429642	0.080743465	-0.10456327	-1.3854222	0.2555177	-0.19980113	-0.90473459	0.029067122	-0.073424659	-1.032922	0.40588985	-0.26613738	-0.81926852	0.44719118	0.027438464	-1.0092189	0.36235817	-0.15361388	-0.82235567	0.46021051	-0.10137343	-1.0016983	0.78111033	-0.27190112	-0.92735773	0.8493845	0.10477822	-0.93251518	0.89370778	-0.22195607	-0.88426475	0.93362107	0.012454393	-1.1067873	0.92136957	-0.063244649	-0.96295971	1.3814314	-0.25259272	-0.98586832	1.3765892	0.070097313	-1.0544767	1.4112373	-0.097703396	-1.0416942	1.0384907	-0.32228628	-1.1352051	1.0664874	0.10660171	-0.81950549	0.91968459	-0.29893012	-1.0849688	0.84171478	0.18358197
66	0.26	-1.3452027	0.070770231	-0.19814662	-0.71274087	0.038698061	-0.05146414	-1.3379946	0.20466103	-0.24473837	-0.85951339	0.050897025	-0.022040836	-1.3119472	0.2035294	-0.1661123	-0.83413995	0.080721294	-0.10461609	-1.3754424	0.25787647	-0.1994537	-0.90477156	0.029051379	-0.073422579	-1.0216658	0.40634946	-0.26606791	-0.81706379	0.4471408	0.027741255	-0.99706849	0.36376933	-0.15370856	-0.82012858	0.46023472	-0.10113422	-0.99554201	0.78179269	-0.27131818	-0.92252925	0.84967755	0.10524382	-0.92733059	0.89446387	-0.22184957	-0.87898708	0.9337855	0.013023174	-1.1016235	0.92193194	-0.062559934	-0.95792377	1.3821413	-0.25237451	-0.98040273	1.3773608	0.070435973	-1.0493363	1.4121014	-0.097269575	-1.036776	1.0392392	-0.32200852	-1.1287794	1.0667643	0.10769944	-0.81518087	0.91951318	-0.29870199	-1.0776949	0.84198504	0.18411619
67	0.264	-1.3335428	0.072930309	-0.19978206	-0.71270845	0.038660355	-0.051509845	-1.3276195	0.20724907	-0.24486919	-0.85956915	0.050903268	-0.022046718	-1.3009399	0.20574814	-0.1663998	-0.83396358	0.080697935	-0.1046605	-1.3656508	0.25991386	-0.19895948	-0.90480064	0.02904067	-0.07342609	-1.010325	0.40701663	-0.26594313	-0.8149153	0.44704251	0.027996779	-0.98477741	0.36532876	-0.15387371	-0.81798086	0.46027502	-0.10083123	-0.98949944	0.78257874	-0.27075063	-0.91789224	0.85001226	0.10563603	-0.92223636	0.89527377	-0.2218262	-0.87375383	0.93398244	0.013595941	-1.0964974	0.92255	-0.062024928	-0.95295341	1.3828697	-0.25218421	-0.97495467	1.3781751	0.070762069	-1.0442261	1.4129907	-0.096855987	-1.0318923	1.0400063	-0.32174805	-1.1223646	1.0670709	0.10882094	-0.81097681	0.91933524	-0.29850103	-1.0703408	0.84229202	0.18462849
68	0.268	-1.3212889	0.074885852	-0.20141252	-0.71267637	0.038630933	-0.051540242	-1.3170677	0.20968882	-0.24491046	-0.85957929	0.050923411	-0.022045772	-1.2903983	0.20782334	-0.16646613	-0.83378095	0.080675099	-0.10469111	-1.3559656	0.26162825	-0.19838527	-0.90482381	0.029034126	-0.073431571	-0.99888881	0.40788617	-0.26581587	-0.81279971	0.44691137	0.028248882	-0.9731108	0.36685336	-0.15385487	-0.81593952	0.4603004	-0.10049787	-0.98360457	0.78344707	-0.27026464	-0.91336982	0.85040725	0.10600251	-0.91722179	0.89613786	-0.22185564	-0.868544	0.93424177	0.014191894	-1.0914508	0.92321364	-0.061646849	-0.94799102	1.3836154	-0.25199421	-0.96955196	1.3790274	0.071073553	-1.0391508	1.4138993	-0.096461044	-1.0270493	1.0407976	-0.32150815	-1.1159735	1.0674151	0.10996261	-0.80689297	0.91915018	-0.29832484	-1.0629224	0.84264194	0.18511132
69	0.272	-1.3085584	0.076663614	-0.20302004	-0.71265478	0.038611779	-0.051548367	-1.3063261	0.21193492	-0.2448884	-0.85955178	0.050955419	-0.022034884	-1.279791	0.20978843	-0.16647325	-0.83361156	0.080655521	-0.10470492	-1.3462594	0.26303941	-0.19783965	-0.90484375	0.029029952	-0.073438454	-0.98736353	0.40893992	-0.26569639	-0.81070491	0.44676658	0.028526283	-0.96239216	0.36822204	-0.15349182	-0.81399323	0.46028955	-0.10016089	-0.97787018	0.78438766	-0.26988215	-0.90891058	0.85084992	0.1063673	-0.91227652	0.89705742	-0.22191549	-0.86336795	0.93459082	0.014817545	-1.0865019	0.92391394	-0.06139481	-0.94297205	1.3843822	-0.2517782	-0.96418882	1.3799143	0.071364889	-1.0341128	1.4148173	-0.096088688	-1.0222515	1.0416149	-0.32128845	-1.1095996	1.0677941	0.11112411	-0.80284361	0.91895564	-0.29815218	-1.0554394	0.84301191	0.18556579
70	0.276	-1.2954383	0.078288618	-0.20460395	-0.71265653	0.038602515	-0.051530405	-1.2953802	0.21396261	-0.2448416	-0.85952146	0.050986216	-0.022015346	-1.268841	0.21165115	-0.16648007	-0.83347118	0.080641653	-0.10470048	-1.3364501	0.26416526	-0.19740219	-0.9048651	0.02902653	-0.073456456	-0.97579437	0.41015683	-0.2655573	-0.80864286	0.44662794	0.028804954	-0.95221928	0.36950203	-0.15288916	-0.81211684	0.46023928	-0.099831621	-0.97229733	0.78539819	-0.26958172	-0.90452322	0.85131834	0.10672446	-0.90738704	0.89802931	-0.22199993	-0.8582749	0.93503903	0.015462486	-1.0816428	0.92464889	-0.06123915	-0.93789009	1.3851789	-0.25153623	-0.95884292	1.3808356	0.07163029	-1.0291124	1.4157361	-0.095744776	-1.0174984	1.0424576	-0.32107176	-1.1032239	1.0681803	0.11230443	-0.79872213	0.91875246	-0.2979507	-1.0478913	0.84338245	0.18599917
71	0.28	-1.2819713	0.079774686	-0.20617233	-0.71269118	0.03860204	-0.051485554	-1.2842225	0.21576593	-0.24478855	-0.85952762	0.051003392	-0.021992585	-1.257494	0.21340207	-0.16648434	-0.83336888	0.080634491	-0.10467801	-1.3265288	0.26500922	-0.19705419	-0.90489442	0.029023224	-0.073503902	-0.96425741	0.41150587	-0.26537642	-0.80665114	0.44650768	0.029069768	-0.94197647	0.37085284	-0.15226455	-0.81025738	0.46016397	-0.099508884	-0.96688541	0.7864732	-0.26933044	-0.90025285	0.85179509	0.10705269	-0.90252618	0.89905171	-0.22211048	-0.85334173	0.93557638	0.016120789	-1.0768434	0.92542932	-0.061159737	-0.93280487	1.3860139	-0.25129091	-0.95351101	1.3817918	0.071871865	-1.0241462	1.4166541	-0.095426502	-1.0127862	1.0433271	-0.32082936	-1.0968369	1.068541	0.1135042	-0.79451464	0.91854874	-0.29770675	-1.0402754	0.843755	0.18641815
